<svg width="40" height="40" viewBox="0 0 40 40" fill="none" xmlns="http://www.w3.org/2000/svg">
<path d="M15 9.99996H25C25 7.23854 22.7615 4.99996 20 4.99996C17.2385 4.99996 15 7.23854 15 9.99996ZM11.6667 9.99996C11.6667 5.39759 15.3976 1.66663 20 1.66663C24.6023 1.66663 28.3333 5.39759 28.3333 9.99996H33.3333C34.2538 9.99996 35 10.7462 35 11.6666V35C35 35.9205 34.2538 36.6666 33.3333 36.6666H6.66667C5.7462 36.6666 5 35.9205 5 35V11.6666C5 10.7462 5.7462 9.99996 6.66667 9.99996H11.6667ZM8.33333 13.3333V33.3333H31.6667V13.3333H8.33333ZM15 16.6666C15 19.4281 17.2385 21.6666 20 21.6666C22.7615 21.6666 25 19.4281 25 16.6666H28.3333C28.3333 21.269 24.6023 25 20 25C15.3976 25 11.6667 21.269 11.6667 16.6666H15Z" fill="black"/>
</svg>
