<svg width="105" height="37" viewBox="0 0 105 37" fill="none" xmlns="http://www.w3.org/2000/svg">
<path d="M9.712 22.139C9.415 22.667 9.745 22.7 9.943 22.7C11.725 22.7 13.837 19.532 16.114 19.532C17.995 19.532 19.018 20.588 19.018 22.568C19.018 24.713 17.5 26 15.025 26H3.508C1.66 26 0.802 24.548 1.726 22.997L10.306 8.741C10.471 8.477 10.339 8.18 10.042 8.18H9.052C8.458 8.18 6.973 10.259 4.696 10.259C3.112 10.259 1.924 9.137 1.924 7.685C1.924 5.936 3.046 4.88 4.96 4.88H15.784C17.962 4.88 18.82 6.86 17.566 8.972L9.712 22.139ZM20.0959 5.309C20.0959 3.461 21.4819 2.24 23.5939 2.24C25.7059 2.24 27.0919 3.461 27.0919 5.309C27.0919 7.19 25.7059 8.411 23.5939 8.411C21.4819 8.411 20.0959 7.19 20.0959 5.309ZM20.3269 14.219C20.3269 13.526 19.8649 12.668 19.8649 11.876C19.8649 10.721 20.6569 9.995 21.8119 9.797L25.3429 9.203C26.2669 9.038 26.9269 9.401 26.9269 10.226V21.908C26.9269 22.502 27.3559 23.525 27.3559 24.119C27.3559 25.175 26.3989 26 25.1449 26H22.1089C20.8549 26 19.8979 25.175 19.8979 24.119C19.8979 23.525 20.3269 22.502 20.3269 21.908V14.219ZM35.8622 9.632C36.4892 9.335 37.2812 9.17 38.2712 9.17C42.9902 9.17 46.1912 12.635 46.1912 17.75C46.1912 22.931 42.8582 26.33 37.7432 26.33C36.1262 26.33 34.9052 26 33.9482 25.241C33.7502 25.109 33.5522 25.109 33.3542 25.241C32.7272 25.703 31.9022 26 30.9122 26C29.5922 26 28.8992 25.043 28.8992 23.294V9.038C28.8992 8.345 28.4372 7.487 28.4372 6.695C28.4372 5.54 29.2292 4.814 30.3842 4.616L33.9152 4.022C34.8392 3.857 35.4992 4.22 35.4992 5.045V9.434C35.4992 9.665 35.6312 9.731 35.8622 9.632ZM37.9412 25.175C39.1292 25.043 39.5582 22.37 39.0302 17.552C38.5022 12.602 37.9082 10.457 36.5222 10.655C35.7632 10.754 35.5652 11.612 35.4992 13.295V19.202C35.4992 23.162 36.6872 25.34 37.9412 25.175ZM47.2951 5.309C47.2951 3.461 48.6811 2.24 50.7931 2.24C52.9051 2.24 54.2911 3.461 54.2911 5.309C54.2911 7.19 52.9051 8.411 50.7931 8.411C48.6811 8.411 47.2951 7.19 47.2951 5.309ZM47.5261 14.219C47.5261 13.526 47.0641 12.668 47.0641 11.876C47.0641 10.721 47.8561 9.995 49.0111 9.797L52.5421 9.203C53.4661 9.038 54.1261 9.401 54.1261 10.226V21.908C54.1261 22.502 54.5551 23.525 54.5551 24.119C54.5551 25.175 53.5981 26 52.3441 26H49.3081C48.0541 26 47.0971 25.175 47.0971 24.119C47.0971 23.525 47.5261 22.502 47.5261 21.908V14.219ZM63.3584 19.961V21.908C63.3584 22.502 63.7874 23.525 63.7874 24.119C63.7874 25.175 62.8304 26 61.5764 26H58.2104C56.9564 26 55.9994 25.175 55.9994 24.119C55.9994 23.525 56.4284 22.502 56.4284 21.908V8.972C56.4284 8.378 55.9994 7.355 55.9994 6.761C55.9994 5.705 56.9564 4.88 58.2104 4.88H64.1834C70.7504 4.88 75.0734 7.487 75.0734 12.173C75.0734 16.859 70.7504 19.4 64.1834 19.4C63.7874 19.4 63.3584 19.433 63.3584 19.961ZM63.3584 7.256V17.222C63.3584 17.585 63.5894 17.849 63.9194 17.882C64.1834 17.915 64.5134 17.948 64.9094 17.948C66.7574 17.948 67.5824 15.902 67.4834 12.272C67.3844 8.576 66.2624 6.563 64.0514 6.563C63.6224 6.563 63.3584 6.827 63.3584 7.256ZM81.6404 16.43C82.3994 18.344 84.2474 19.367 86.2934 19.367C87.7784 19.367 89.3954 18.806 90.8144 17.75C91.0784 17.552 91.2434 17.684 91.2434 18.08C91.2434 22.733 87.7124 26.33 83.3894 26.33C79.0334 26.33 76.0634 22.634 76.0634 17.783C76.0634 13.559 78.5054 9.137 83.4224 9.137C86.0294 9.137 88.1084 10.391 88.9004 12.239C89.7914 14.318 88.9664 16.067 86.5244 16.067H81.9044C81.6734 16.067 81.5414 16.199 81.6404 16.43ZM81.6074 14.846L83.7194 14.615C83.9834 14.582 84.1154 14.384 84.1154 14.153C84.1154 13.097 83.9174 10.292 82.3994 10.292C81.3434 10.292 80.8814 12.437 81.1454 14.516C81.1784 14.747 81.3764 14.879 81.6074 14.846ZM102.154 12.668H100.339C100.042 12.668 99.8105 12.899 99.8105 13.196V19.961C99.8105 21.281 100.537 22.172 102.286 22.04C102.781 22.007 102.913 22.37 102.814 22.733C102.55 23.69 100.999 26.33 97.5665 26.33C94.8605 26.33 93.2105 24.713 93.2105 21.677C93.2105 18.839 93.2105 16.034 93.2105 13.196C93.2105 12.899 92.9795 12.668 92.6825 12.668C91.3955 12.635 90.9335 11.018 91.9565 10.16C93.6725 8.741 96.0815 7.058 97.8965 5.705C98.1605 5.507 98.4575 5.408 98.7215 5.408C99.3155 5.408 99.8105 5.837 99.8105 6.497V9.632C99.8105 9.929 100.042 10.16 100.339 10.16H102.748C103.705 10.16 103.474 12.668 102.154 12.668Z" fill="#5487FF"/>
<rect y="32" width="105" height="5" rx="2.5" fill="#5487FF"/>
</svg>
