<svg xmlns="http://www.w3.org/2000/svg" data-name="Layer 1" viewBox="0 0 100 125" x="0px" y="0px"><path d="M63.55,59a3.6,3.6,0,0,0-6.45-1.73,3.89,3.89,0,0,1-1.66,1.29A4.41,4.41,0,0,0,52.61,61c-.51,1.93,1,2.66,2.89,3.18a4.05,4.05,0,0,0,1.09.12,6.65,6.65,0,0,1,3.9,1,3.26,3.26,0,0,0,1,.44c1.92.52,3.57.62,4.08-1.3a4.4,4.4,0,0,0-1.23-3.52A3.8,3.8,0,0,1,63.55,59Z"/><ellipse cx="58.84" cy="50.84" rx="3.41" ry="2.61" transform="translate(1.51 103.39) rotate(-83.34)"/><ellipse cx="65.24" cy="52.56" rx="3.41" ry="2.61" transform="translate(-8.86 91.64) rotate(-66.66)"/><ellipse cx="67.76" cy="58.58" rx="2.78" ry="2.12" transform="translate(-12.87 97.59) rotate(-66.66)"/><ellipse cx="53.65" cy="54.8" rx="2.78" ry="2.12" transform="translate(-7 101.73) rotate(-83.34)"/><path d="M44.56,45a3.89,3.89,0,0,1-1.66-1.29,3.6,3.6,0,0,0-6.45,1.73,3.87,3.87,0,0,1-.8,2,4.38,4.38,0,0,0-1.23,3.51c.51,1.92,2.16,1.82,4.08,1.31a3.54,3.54,0,0,0,1-.45,6.72,6.72,0,0,1,3.9-1,3.69,3.69,0,0,0,1.09-.12c1.93-.52,3.4-1.25,2.89-3.17A4.39,4.39,0,0,0,44.56,45Z"/><ellipse cx="34.76" cy="39.06" rx="2.61" ry="3.41" transform="translate(-12.63 16.96) rotate(-23.34)"/><ellipse cx="41.16" cy="37.35" rx="2.61" ry="3.41" transform="translate(-4.06 5.03) rotate(-6.66)"/><ellipse cx="46.35" cy="41.3" rx="2.12" ry="2.78" transform="translate(-4.48 5.66) rotate(-6.66)"/><ellipse cx="32.24" cy="45.08" rx="2.12" ry="2.78" transform="translate(-15.22 16.46) rotate(-23.34)"/><text x="0" y="115" fill="#000000" font-size="5px" font-weight="bold" font-family="'Helvetica Neue', Helvetica, Arial-Unicode, Arial, Sans-serif">Created by Andrianxia</text><text x="0" y="120" fill="#000000" font-size="5px" font-weight="bold" font-family="'Helvetica Neue', Helvetica, Arial-Unicode, Arial, Sans-serif">from the Noun Project</text></svg>